<?xml version="1.0" standalone="no"?>
<!DOCTYPE svg PUBLIC "-//W3C//DTD SVG 20010904//EN"
 "http://www.w3.org/TR/2001/REC-SVG-20010904/DTD/svg10.dtd">
<svg version="1.0" xmlns="http://www.w3.org/2000/svg"
 width="398.000000pt" height="330.000000pt" viewBox="0 0 398.000000 330.000000"
 preserveAspectRatio="xMidYMid meet">

<g transform="translate(0.000000,330.000000) scale(0.100000,-0.100000)"
fill="#000000" stroke="none">
<path d="M157 3142 c-86 -86 -157 -160 -157 -164 0 -3 294 -300 654 -660 359
-359 655 -659 658 -667 2 -8 -20 -37 -51 -66 -97 -89 -1261 -1256 -1261 -1263
0 -4 72 -79 160 -167 l160 -160 827 828 828 827 -825 825 c-454 454 -827 825
-830 825 -3 0 -76 -71 -163 -158z"/>
<path d="M1162 3137 l-162 -162 660 -660 c363 -362 660 -662 660 -665 0 -3
-297 -303 -660 -665 l-660 -660 163 -163 163 -163 822 822 c452 452 822 825
822 829 0 6 -1638 1650 -1644 1650 -1 0 -74 -73 -164 -163z"/>
<path d="M2166 3137 l-158 -160 663 -663 664 -664 -664 -664 -663 -663 163
-162 163 -162 825 825 826 826 -825 825 c-454 454 -827 824 -830 824 -3 -1
-76 -74 -164 -162z"/>
</g>
</svg>
