<svg id="svg" xmlns="http://www.w3.org/2000/svg" xmlns:xlink="http://www.w3.org/1999/xlink" width="400" height="400" viewBox="0, 0, 400,400"><g id="svgg"><path id="path0" d="M143.238 1.234 C 31.543 11.990,-33.641 131.286,17.804 230.794 C 56.804 306.228,151.591 337.657,226.374 299.949 L 235.477 295.359 283.932 343.882 C 340.217 400.246,339.167 399.452,357.386 399.405 C 381.739 399.342,398.260 382.828,398.284 358.523 C 398.304 339.135,401.095 342.895,344.544 286.141 L 295.068 236.486 299.728 226.458 C 346.589 125.597,280.678 10.723,170.455 1.154 C 156.162 -0.087,156.984 -0.089,143.238 1.234 M180.114 45.043 C 268.550 61.820,303.677 172.982,241.046 237.865 C 175.152 306.129,60.082 270.875,43.713 177.408 C 29.867 98.346,100.382 29.918,180.114 45.043 " stroke="none" fill="#000000" fill-rule="evenodd"></path></g></svg>